<svg width="26" height="26" viewBox="0 0 26 26" fill="none" xmlns="http://www.w3.org/2000/svg">
<g id="lucide:package-2">
<path id="Vector 2" opacity="0.5" d="M18.4167 3.25H7.04167L4.875 4.875L3.25 9.75V21.6667L5.95833 23.2917H20.5833L22.75 21.6667V9.75L20.5833 4.875L18.4167 3.25Z" fill="#838383"/>
<path id="Vector" d="M3.25 9.74999H22.75M3.25 9.74999V20.5833C3.25 21.158 3.47827 21.7091 3.8846 22.1154C4.29093 22.5217 4.84203 22.75 5.41667 22.75H20.5833C21.158 22.75 21.7091 22.5217 22.1154 22.1154C22.5217 21.7091 22.75 21.158 22.75 20.5833V9.74999M3.25 9.74999L5.90417 4.44166C6.08505 4.0827 6.36221 3.78114 6.70467 3.57069C7.04713 3.36024 7.44138 3.2492 7.84333 3.24999H18.1567C18.5605 3.24718 18.957 3.35727 19.3016 3.56783C19.6461 3.77839 19.925 4.08105 20.1067 4.44166L22.75 9.74999M13 3.24999V9.74999" stroke="#838383" stroke-width="1.95" stroke-linecap="round" stroke-linejoin="round"/>
</g>
</svg>
